<?xml version="1.0" encoding="iso-8859-1"?>
<!-- Generator: Adobe Illustrator 21.0.0, SVG Export Plug-In . SVG Version: 6.00 Build 0)  -->
<svg version="1.1" id="Capa_1" xmlns="http://www.w3.org/2000/svg" xmlns:xlink="http://www.w3.org/1999/xlink" x="0px" y="0px"
	 viewBox="0 0 512 512" style="enable-background:new 0 0 512 512;" xml:space="preserve">
<path style="fill:#003C79;" d="M416.496,455.442c-45.145,36.376-102.891,57.745-165.664,56.507
	C110.504,509.182-1.875,392.809,0.024,252.467C1.914,112.711,115.795,0,256,0c141.686,0,255.803,113.951,256,255.637
	c0.058,41.856-9.94,81.367-27.696,116.27c-0.652,1.283-1.727,2.294-3.022,2.92c-30.902,14.937-54.217,43.093-62.599,77.13
	C418.345,453.324,417.593,454.558,416.496,455.442z"/>
<path style="fill:#87A0AF;" d="M437.564,341.754H67.451c-5.523,0-10-4.477-10-10V66.5c0-5.523,4.477-10,10-10h370.114
	c5.523,0,10,4.477,10,10v265.254C447.564,337.277,443.087,341.754,437.564,341.754z"/>
<path style="fill:#9BB9C3;" d="M437.564,341.754H90c-5.523,0-10-4.477-10-10V66.5c0-5.523,4.477-10,10-10h347.565
	c5.523,0,10,4.477,10,10v265.254C447.564,337.277,443.087,341.754,437.564,341.754z"/>
<g>
	<path style="fill:#738C96;" d="M250.286,74.273c0,4.908-3.979,8.886-8.886,8.886c-4.908,0-8.886-3.979-8.886-8.886
		s3.979-8.886,8.886-8.886C246.308,65.386,250.286,69.365,250.286,74.273z M273.391,65.386c-4.908,0-8.886,3.979-8.886,8.886
		s3.979,8.886,8.886,8.886s8.886-3.979,8.886-8.886S278.299,65.386,273.391,65.386z"/>
	<path style="fill:#738C96;" d="M59.75,349.752H35.015c-5.523,0-10-4.477-10-10v-5.771c0-5.523,4.477-10,10-10H59.75
		c5.523,0,10,4.477,10,10v5.771C69.75,345.275,65.273,349.752,59.75,349.752z"/>
</g>
<path style="fill:#87A0AF;" d="M470,349.752H52.788c-5.523,0-10-4.477-10-10v-5.771c0-5.523,4.477-10,10-10H470
	c5.523,0,10,4.477,10,10v5.771C480,345.275,475.523,349.752,470,349.752z"/>
<path style="fill:#738C96;" d="M311.158,323.981v7.109c0,4.908-3.979,8.886-8.886,8.886h-99.528c-4.908,0-8.886-3.979-8.886-8.886
	v-7.109H311.158z"/>
<path style="fill:#D3F1F5;" d="M447.564,296.433H57.451V92.046h390.114v204.387H447.564z"/>
<path style="fill:#ADE8F0;" d="M80,296.433H57.451V92.046H80V296.433z"/>
<path style="fill:#8ED0E1;" d="M184,185v90c0,2.761-2.239,5-5,5h-74c-2.761,0-5-2.239-5-5v-90c0-2.761,2.239-5,5-5h74
	C181.761,180,184,182.239,184,185z M425,110H105c-2.761,0-5,2.239-5,5v44.5c0,2.761,2.239,5,5,5h320c2.761,0,5-2.239,5-5V115
	C430,112.239,427.761,110,425,110z M275.333,180H204c-2.761,0-5,2.239-5,5v90c0,2.761,2.239,5,5,5h71.333c2.761,0,5-2.239,5-5v-90
	C280.333,182.239,278.095,180,275.333,180z"/>
<path style="fill:#F02399;" d="M350,455.5h-42.307c-5.523,0-10-4.477-10-10V136.703c0-5.523,4.477-10,10-10H350
	c5.523,0,10,4.477,10,10V445.5C360,451.023,355.523,455.5,350,455.5z"/>
<path style="fill:#FD4FB6;" d="M460.148,410.47c-12.688,16.738-27.389,31.866-43.739,45.03h-82.945c-5.523,0-10-4.477-10-10V136.703
	c0-5.523,4.477-10,10-10h140.844c1.019,0,2.002,0.155,2.928,0.438c2.475,4.241,4.838,8.555,7.072,12.946v198.096
	C484.307,364.261,475.902,389.688,460.148,410.47z"/>
<path style="fill:#FFF5F5;" d="M484.307,153.362v218.552c-7.033,13.825-15.292,26.919-24.622,39.155H297.693V153.362h43.543l0,0l0,0
	c0,9.816,7.957,17.773,17.773,17.773h63.982c9.815,0,17.773-7.957,17.773-17.773l0,0l0,0H484.307z"/>
<path style="fill:#FFDF8E;" d="M323.463,411.068h-25.771V153.362h25.771V411.068z"/>
<path style="fill:#C2186C;" d="M426.546,148.474c0,4.908-3.979,8.886-8.886,8.886c-4.908,0-8.886-3.979-8.886-8.886
	s3.979-8.886,8.886-8.886S426.546,143.567,426.546,148.474z M391,157.361c4.908,0,8.886-3.979,8.886-8.886s-3.979-8.886-8.886-8.886
	s-8.886,3.979-8.886,8.886S386.092,157.361,391,157.361z M364.341,139.588c-4.908,0-8.886,3.979-8.886,8.886
	s3.979,8.886,8.886,8.886c4.908,0,8.886-3.979,8.886-8.886S369.248,139.588,364.341,139.588z M399.886,423.509h-17.773
	c-4.908,0-8.886,3.979-8.886,8.886c0,4.908,3.979,8.886,8.886,8.886h17.773c4.908,0,8.886-3.979,8.886-8.886
	C408.773,427.488,404.794,423.509,399.886,423.509z"/>
<path style="fill:#FFDF8E;" d="M408.886,374.423L408.886,374.423c0,4.908-3.979,8.886-8.886,8.886s-8.886-3.979-8.886-8.886l0,0
	c0-4.908,3.979-8.886,8.886-8.886S408.886,369.515,408.886,374.423z M373.341,365.536c-4.908,0-8.886,3.979-8.886,8.886l0,0
	c0,4.908,3.979,8.886,8.886,8.886c4.908,0,8.886-3.979,8.886-8.886l0,0C382.227,369.515,378.248,365.536,373.341,365.536z
	 M426.659,365.536c-4.908,0-8.886,3.979-8.886,8.886l0,0c0,4.908,3.979,8.886,8.886,8.886c4.908,0,8.886-3.979,8.886-8.886l0,0
	C435.546,369.515,431.567,365.536,426.659,365.536z M455,194.239H345c-2.761,0-5,2.239-5,5V342.5c0,2.761,2.239,5,5,5h110
	c2.761,0,5-2.239,5-5V199.239C460,196.478,457.761,194.239,455,194.239z"/>
<path style="fill:#7AC9A5;" d="M274.63,433.177l-47.652,25.189c-1.332,0.704-2.935-0.262-2.935-1.768v-13.189h-27.054
	c-16.569,0-30-13.431-30-30v-26.381h-13.266c-1.507,0-2.472-1.603-1.768-2.935l25.189-47.652c0.751-1.42,2.785-1.42,3.536,0
	l25.189,47.652c0.704,1.332-0.261,2.935-1.768,2.935h-13.266v22.535c0,5.523,4.477,10,10,10h23.208V406.22
	c0-1.507,1.603-2.472,2.935-1.768l47.652,25.189C276.051,430.391,276.051,432.426,274.63,433.177z"/>
<g>
</g>
<g>
</g>
<g>
</g>
<g>
</g>
<g>
</g>
<g>
</g>
<g>
</g>
<g>
</g>
<g>
</g>
<g>
</g>
<g>
</g>
<g>
</g>
<g>
</g>
<g>
</g>
<g>
</g>
</svg>
