<?xml version="1.0" encoding="iso-8859-1"?>
<!-- Generator: Adobe Illustrator 19.0.0, SVG Export Plug-In . SVG Version: 6.00 Build 0)  -->
<svg version="1.1" id="Layer_1" xmlns="http://www.w3.org/2000/svg" xmlns:xlink="http://www.w3.org/1999/xlink" x="0px" y="0px"
	 viewBox="0 0 512 512" style="enable-background:new 0 0 512 512;" xml:space="preserve">
<path style="fill:#BFFAFF;" d="M497,0H15C6.716,0,0,6.716,0,15v482c0,8.285,6.716,15,15,15h482c8.284,0,15-6.715,15-15V15
	C512,6.716,505.284,0,497,0z"/>
<path style="fill:#75EFFF;" d="M497,0H255.998v512H497c8.284,0,15-6.715,15-15V15C512,6.716,505.284,0,497,0z"/>
<g>
	<path style="fill:#00479B;" d="M400.6,222.8H111.4c-8.284,0-15-6.716-15-15v-96.4c0-8.284,6.716-15,15-15h289.2
		c8.284,0,15,6.716,15,15v96.4C415.6,216.084,408.884,222.8,400.6,222.8z M126.399,192.8h259.2v-66.4h-259.2L126.399,192.8
		L126.399,192.8z"/>
	<path style="fill:#00479B;" d="M207.8,415.602h-96.4c-8.284,0-15-6.717-15-15V304.2c0-8.284,6.716-15,15-15h96.4
		c8.284,0,15,6.716,15,15v96.401C222.8,408.885,216.084,415.602,207.8,415.602z M126.399,385.602h66.4v-66.4h-66.4
		C126.399,319.202,126.399,385.602,126.399,385.602z"/>
</g>
<g>
	<path style="fill:#003068;" d="M400.6,415.602h-96.4c-8.284,0-15-6.717-15-15V304.2c0-8.284,6.716-15,15-15h96.4
		c8.284,0,15,6.716,15,15v96.401C415.6,408.885,408.884,415.602,400.6,415.602z M319.199,385.602h66.4v-66.4h-66.4V385.602z"/>
	<path style="fill:#003068;" d="M400.6,96.4H255.998v30H385.6v66.4H255.998v30H400.6c8.284,0,15-6.716,15-15v-96.4
		C415.6,103.116,408.884,96.4,400.6,96.4z"/>
</g>
<g>
</g>
<g>
</g>
<g>
</g>
<g>
</g>
<g>
</g>
<g>
</g>
<g>
</g>
<g>
</g>
<g>
</g>
<g>
</g>
<g>
</g>
<g>
</g>
<g>
</g>
<g>
</g>
<g>
</g>
</svg>
